<svg width="191" height="111" viewBox="0 0 191 111" fill="none" xmlns="http://www.w3.org/2000/svg">
<path d="M33.3234 90.0153C32.634 90.0165 31.9571 89.8317 31.364 89.4803C30.7709 89.129 30.2835 88.6241 29.9533 88.0189C29.6231 87.4137 29.4623 86.7307 29.4878 86.0417C29.5133 85.3528 29.7242 84.6835 30.0983 84.1044L34.796 76.7742L32.4771 64.2195C32.3659 63.6091 32.4048 62.9807 32.5905 62.3886C32.7762 61.7965 33.1032 61.2585 33.5433 60.821L39.9335 54.4237C40.6563 53.7208 41.6267 53.3305 42.6349 53.3372C43.6431 53.344 44.6082 53.7472 45.3215 54.4597C46.0349 55.1723 46.4392 56.1369 46.4472 57.1451C46.4552 58.1534 46.0662 59.1243 45.3642 59.8481L40.3866 64.8259L42.5855 76.9141C42.7603 77.8698 42.565 78.8561 42.0391 79.673L36.5285 88.256C36.1827 88.7927 35.7085 89.2346 35.1489 89.5418C34.5892 89.849 33.9618 90.0117 33.3234 90.0153Z" fill="#FF6564"/>
<path d="M38.8074 81.4388C37.8312 81.431 36.8946 81.0515 36.1884 80.3775C35.4821 79.7035 35.0592 78.7857 35.0057 77.8109C34.9522 76.8361 35.2722 75.8775 35.9004 75.1303C36.5287 74.383 37.4181 73.9033 38.3876 73.7887L49.9019 72.5093C50.8902 72.4405 51.8668 72.7565 52.6274 73.3912C53.388 74.026 53.8738 74.9302 53.9831 75.9149C54.0924 76.8995 53.8168 77.8883 53.2139 78.6744C52.611 79.4605 51.7275 79.983 50.7482 80.1327L39.2338 81.4122C39.0925 81.431 38.95 81.4399 38.8074 81.4388Z" fill="#FF6564"/>
<path d="M167.178 79.7861C166.473 79.7874 165.781 79.5937 165.179 79.2264L155.757 70.6367C155.199 70.2938 154.738 69.8137 154.418 69.242C154.099 68.6704 153.931 68.0264 153.931 67.3714V57.0691L144.702 52.9709C143.981 52.6507 143.376 52.1154 142.97 51.4382L139.132 45.0409C138.853 44.6086 138.665 44.1249 138.577 43.6183C138.489 43.1118 138.504 42.5927 138.62 42.092C138.737 41.5913 138.953 41.1191 139.256 40.7035C139.558 40.2878 139.941 39.9372 140.382 39.6724C140.823 39.4077 141.312 39.2341 141.821 39.1621C142.33 39.0901 142.848 39.1211 143.345 39.2532C143.842 39.3854 144.307 39.616 144.713 39.9314C145.119 40.2468 145.458 40.6405 145.708 41.0892L148.927 46.4203L159.328 51.045C160.006 51.3465 160.583 51.838 160.987 52.4601C161.391 53.0822 161.607 53.8082 161.607 54.5502V65.2123L169.19 72.6692C169.906 73.1047 170.459 73.7623 170.766 74.5417C171.073 75.3211 171.116 76.1794 170.89 76.9858C170.663 77.7922 170.179 78.5023 169.511 79.0079C168.844 79.5135 168.029 79.7868 167.191 79.7861H167.178Z" fill="#FF6564"/>
<path d="M157.749 58.4152C157.078 58.4145 156.418 58.2377 155.836 57.9024C155.255 57.5671 154.771 57.0851 154.434 56.5044C154.097 55.9237 153.918 55.2647 153.915 54.5932C153.912 53.9217 154.085 53.2612 154.418 52.6776L159.535 43.7214C160.055 42.8681 160.887 42.2511 161.854 42.0015C162.822 41.752 163.848 41.8896 164.716 42.385C165.584 42.8805 166.224 43.6947 166.501 44.6548C166.778 45.6149 166.669 46.6451 166.198 47.5265L161.081 56.4827C160.745 57.0698 160.26 57.5577 159.675 57.8971C159.09 58.2365 158.426 58.4152 157.749 58.4152Z" fill="#FF6564"/>
<path d="M157.763 71.2031C157.507 71.2051 157.253 71.1806 157.003 71.1298L144.216 68.5709C143.706 68.4889 143.219 68.3051 142.782 68.0303C142.345 67.7555 141.968 67.3954 141.674 66.9716C141.379 66.5478 141.173 66.0689 141.068 65.5637C140.963 65.0584 140.96 64.5372 141.061 64.031C141.162 63.5249 141.364 63.0443 141.655 62.618C141.946 62.1917 142.32 61.8284 142.754 61.5499C143.188 61.2713 143.675 61.0833 144.183 60.997C144.692 60.9106 145.213 60.9278 145.715 61.0474L158.509 63.6063C159.437 63.7986 160.26 64.3271 160.822 65.0903C161.383 65.8534 161.643 66.7973 161.55 67.7402C161.457 68.6831 161.019 69.5584 160.32 70.1977C159.621 70.837 158.71 71.1951 157.763 71.2031Z" fill="#FF6564"/>
<path d="M43.9315 46.9069C43.2705 46.9051 42.6213 46.7323 42.0468 46.4053C41.4724 46.0784 40.9922 45.6084 40.6531 45.041L36.8017 38.6504C36.4384 38.0472 36.2493 37.3553 36.2553 36.6512V27.7217L33.5099 24.0566C32.938 23.2405 32.7057 22.234 32.8624 21.2499C33.019 20.2657 33.5523 19.381 34.3494 18.783C35.1465 18.1849 36.1449 17.9203 37.1335 18.0451C38.1222 18.17 39.0235 18.6744 39.647 19.4518L43.1586 24.1165C43.6574 24.7816 43.9263 25.5909 43.9249 26.4222V35.6117L47.2166 41.0893C47.5647 41.6718 47.7524 42.336 47.7608 43.0145C47.7691 43.6931 47.5978 44.3617 47.2641 44.9526C46.9305 45.5434 46.4464 46.0355 45.8611 46.3787C45.2758 46.722 44.61 46.9042 43.9315 46.9069Z" fill="#FF6564"/>
<path d="M51.6078 32.8329C51.3256 32.8338 51.0442 32.8047 50.7682 32.7463L39.2605 30.1874C38.7683 30.0784 38.3023 29.8736 37.8893 29.5846C37.4762 29.2955 37.1241 28.928 36.8531 28.5029C36.5821 28.0777 36.3975 27.6034 36.3097 27.1069C36.222 26.6105 36.233 26.1016 36.3419 25.6093C36.4508 25.1171 36.6557 24.6511 36.9447 24.238C37.2337 23.8249 37.6012 23.4728 38.0263 23.2018C38.4514 22.9308 38.9257 22.7461 39.4222 22.6584C39.9186 22.5707 40.4274 22.5816 40.9197 22.6906L52.434 25.2495C53.3545 25.4562 54.1666 25.9947 54.7153 26.7622C55.264 27.5297 55.5108 28.4724 55.4086 29.4104C55.3064 30.3483 54.8624 31.2157 54.1613 31.847C53.4602 32.4784 52.5512 32.8293 51.6078 32.8329Z" fill="#FF6564"/>
<path d="M24.7409 62.2536C23.9073 62.2534 23.0965 61.9813 22.4315 61.4786C21.7666 60.976 21.2836 60.2701 21.056 59.4681L18.8904 51.9047L11.5607 45.8406C11.116 45.5779 10.7289 45.2283 10.4226 44.8125C10.1163 44.3967 9.89701 43.9234 9.77791 43.4208C9.65882 42.9183 9.64235 42.3969 9.7295 41.8879C9.81666 41.3788 10.0056 40.8926 10.2851 40.4583C10.5646 40.024 10.9288 39.6506 11.356 39.3604C11.7832 39.0703 12.2646 38.8693 12.7713 38.7695C13.278 38.6698 13.7996 38.6733 14.3049 38.7799C14.8102 38.8865 15.2888 39.094 15.712 39.39L24.2611 46.2338C25.0432 46.7395 25.616 47.5111 25.8737 48.4062L28.4324 57.3624C28.7102 58.3406 28.5893 59.389 28.096 60.2782C27.6027 61.1674 26.7773 61.825 25.8004 62.107C25.4556 62.2043 25.0991 62.2536 24.7409 62.2536Z" fill="#FF6564"/>
<path d="M22.1821 53.3108C21.2106 53.303 20.2781 52.9271 19.5728 52.2588C18.8676 51.5904 18.442 50.6795 18.3819 49.7097C18.3219 48.7399 18.6319 47.7834 19.2494 47.0332C19.8668 46.283 20.7458 45.7949 21.709 45.6674L31.944 44.3879C32.9047 44.3506 33.8443 44.6752 34.5772 45.2975C35.31 45.9198 35.7826 46.7945 35.9015 47.7485C36.0205 48.7026 35.7771 49.6665 35.2194 50.4497C34.6618 51.2329 33.8306 51.7783 32.8902 51.978L22.6619 53.2708C22.503 53.2939 22.3427 53.3073 22.1821 53.3108Z" fill="#FF6564"/>
<path d="M146.035 95.7994C145.361 95.8028 144.698 95.6284 144.113 95.2938C143.528 94.9592 143.042 94.4762 142.703 93.8936L139.671 88.196L133.008 84.8641C132.098 84.4081 131.406 83.6092 131.085 82.6432C130.764 81.6772 130.84 80.6231 131.295 79.7129C131.751 78.8027 132.55 78.111 133.516 77.7898C134.482 77.4686 135.536 77.5443 136.446 78.0003L144.116 81.8387C144.784 82.1711 145.34 82.6924 145.715 83.3381L149.34 90.0019C149.6 90.4403 149.771 90.9262 149.841 91.4312C149.911 91.9362 149.88 92.4502 149.749 92.9429C149.618 93.4357 149.39 93.8974 149.078 94.3009C148.767 94.7044 148.378 95.0417 147.934 95.293C147.357 95.627 146.702 95.8018 146.035 95.7994Z" fill="#FF6564"/>
<path d="M139.851 36.6511C139.242 36.6531 138.642 36.5099 138.099 36.2335C137.557 35.9571 137.088 35.5554 136.732 35.0616C136.375 34.5678 136.142 33.9963 136.051 33.3942C135.959 32.7922 136.013 32.1771 136.206 31.5999L138.765 23.9298C138.971 23.3083 139.333 22.7505 139.818 22.3105L147.148 16.2397C147.903 15.5851 148.884 15.2509 149.882 15.3083C150.88 15.3658 151.816 15.8102 152.491 16.5471C153.166 17.2841 153.528 18.2554 153.498 19.2546C153.468 20.2537 153.05 21.2018 152.332 21.8973L145.735 27.3217L143.49 34.0522C143.231 34.8117 142.742 35.4711 142.089 35.9374C141.436 36.4036 140.653 36.6533 139.851 36.6511Z" fill="#FF6564"/>
<path d="M142.41 29.001C142.035 29.0012 141.662 28.945 141.304 28.8344L128.517 24.996C127.614 24.6481 126.875 23.9717 126.45 23.1024C126.024 22.2332 125.943 21.2352 126.221 20.3083C126.5 19.3814 127.119 18.5942 127.954 18.1042C128.788 17.6142 129.777 17.4576 130.722 17.6658L143.51 21.5042C144.393 21.7676 145.153 22.3405 145.649 23.118C146.145 23.8955 146.344 24.8256 146.211 25.7382C146.077 26.6507 145.62 27.4847 144.922 28.0876C144.224 28.6904 143.332 29.0217 142.41 29.021V29.001Z" fill="#FF6564"/>
<path d="M190.2 53.3973C175.533 21.4509 137.392 0 95.2927 0H95.0994C53.06 0.0799661 14.9986 21.5242 0.352407 53.3973C0.120176 53.9068 0 54.4601 0 55.02C0 55.5799 0.120176 56.1332 0.352407 56.6426C15.0119 88.6291 53.1599 110.033 95.2794 110.033H95.4659C137.492 109.967 175.56 88.5158 190.2 56.6426C190.432 56.1332 190.552 55.5799 190.552 55.02C190.552 54.4601 190.432 53.9068 190.2 53.3973ZM95.4526 102.323H95.2927C56.8315 102.323 22.0818 83.3913 8.10195 55.01C22.0418 26.6953 56.7448 7.75005 95.1128 7.69673H95.2927C133.747 7.69673 168.497 26.6354 182.477 55.01C168.524 83.3313 133.827 102.27 95.4526 102.323Z" fill="#0A268B"/>
<path d="M123.219 54.2704C123.214 60.1986 121.264 65.9613 117.668 70.6746C114.073 75.3879 109.031 78.7916 103.315 80.3636C97.5997 81.9356 91.5262 81.5891 86.0264 79.3772C80.5267 77.1653 75.9043 73.2103 72.8683 68.1186C69.8322 63.027 68.5502 57.0799 69.2188 51.1895C69.8874 45.2991 72.4697 39.7907 76.5696 35.5091C80.6696 31.2276 86.0608 28.4093 91.9164 27.4865C97.7719 26.5637 103.769 27.5874 108.986 30.4005C107.418 30.9965 106.015 31.9599 104.896 33.21C103.776 34.46 102.973 35.9603 102.553 37.5849C102.133 39.2096 102.108 40.9113 102.482 42.5473C102.855 44.1833 103.615 45.7059 104.699 46.9875C105.782 48.269 107.157 49.2722 108.707 49.9127C110.258 50.5533 111.94 50.8126 113.612 50.6689C115.284 50.5253 116.897 49.9828 118.316 49.0871C119.735 48.1913 120.918 46.9684 121.767 45.5208C122.735 48.336 123.226 51.2933 123.219 54.2704Z" fill="#0A268B"/>
<path d="M96.106 13.9541C88.1322 13.9515 80.3367 16.3137 73.7054 20.7421C67.0741 25.1705 61.9049 31.4661 58.8516 38.8327C55.7983 46.1993 54.9981 54.306 56.5521 62.1275C58.1061 69.9489 61.9445 77.1338 67.582 82.7735C73.2194 88.4132 80.4026 92.2542 88.223 93.8109C96.0435 95.3676 104.15 94.57 111.517 91.5189C118.884 88.4679 125.181 83.3005 129.611 76.6702C134.042 70.04 136.406 62.2447 136.406 54.2703C136.394 43.5839 132.145 33.3385 124.59 25.7808C117.035 18.2231 106.792 13.97 96.106 13.9541ZM96.106 86.9098C89.6483 86.9098 83.3357 84.9948 77.9663 81.4068C72.5969 77.8189 68.412 72.7192 65.9407 66.7527C63.4695 60.7862 62.8229 54.2208 64.0827 47.8868C65.3425 41.5527 68.4522 35.7346 73.0185 31.168C77.5848 26.6014 83.4026 23.4915 89.7362 22.2316C96.0698 20.9717 102.635 21.6183 108.601 24.0897C114.567 26.5612 119.666 30.7463 123.254 36.1161C126.842 41.4858 128.757 47.7989 128.757 54.257C128.757 62.9171 125.317 71.2224 119.194 77.346C113.07 83.4696 104.766 86.9098 96.106 86.9098Z" fill="#0A268B"/>
</svg>
