<svg width="192" height="142" viewBox="0 0 192 142" fill="none" xmlns="http://www.w3.org/2000/svg">
<path d="M50.3067 44.0266H42.6267V126.742H50.3067V44.0266Z" fill="#FF6564"/>
<path d="M36.5733 52.7341H28.8933V118.704H36.5733V52.7341Z" fill="#FF6564"/>
<path d="M22.8467 64.1211H15.1667V107.987H22.8467V64.1211Z" fill="#FF6564"/>
<path d="M105.22 50.4768V33.3096H97.5467V49.2511C100.141 49.3836 102.713 49.7946 105.22 50.4768Z" fill="#FF6564"/>
<path d="M97.5467 122.482V137.472H105.22V121.263C102.713 121.946 100.141 122.355 97.5467 122.482Z" fill="#FF6564"/>
<path d="M83.8133 120.532V136.802H91.4933V122.281C88.8777 121.98 86.3025 121.394 83.8133 120.532Z" fill="#FF6564"/>
<path d="M91.4933 49.4588V33.9795H83.8133V51.207C86.3016 50.3425 88.8772 49.7562 91.4933 49.4588Z" fill="#FF6564"/>
<path d="M77.76 53.9467V35.989H70.0867V59.774C72.3773 57.4999 74.9575 55.5404 77.76 53.9467Z" fill="#FF6564"/>
<path d="M70.0867 111.972V134.793H77.76V117.793C74.9579 116.201 72.3778 114.244 70.0867 111.972Z" fill="#FF6564"/>
<path d="M59.2067 85.8965C59.1989 79.5077 60.8635 73.2293 64.0333 67.691V39.3379H56.3533V132.113H64.0333V104.075C60.868 98.5447 59.2036 92.2761 59.2067 85.8965Z" fill="#FF6564"/>
<path d="M173.733 62.1116H166.053V108.657H173.733V62.1116Z" fill="#FF6564"/>
<path d="M160.007 50.7249H152.327V120.044H160.007V50.7249Z" fill="#FF6564"/>
<path d="M187.46 78.187H179.78V93.2511H187.46V78.187Z" fill="#FF6564"/>
<path d="M118.813 57.4967V35.989H111.133V52.6472C113.884 53.936 116.464 55.5651 118.813 57.4967Z" fill="#FF6564"/>
<path d="M111.133 119.092V134.793H118.813V114.236C116.465 116.17 113.885 117.801 111.133 119.092Z" fill="#FF6564"/>
<path d="M132.54 60.0151V37.3286H124.867V63.833C125.26 64.3622 125.627 64.9181 125.993 65.4674L132.54 60.0151Z" fill="#FF6564"/>
<path d="M130.313 74.2552C132.186 79.8881 132.669 85.8938 131.721 91.7557C130.772 97.6177 128.42 103.16 124.867 107.907V132.783H132.54V73.5117L130.313 74.2552Z" fill="#FF6564"/>
<path d="M138.593 71.4891V128.081H146.273V68.917L138.593 71.4891Z" fill="#FF6564"/>
<path d="M139.613 57.0947C141.916 58.2583 144.142 59.5671 146.28 61.0131V42.687H138.593V56.7932C138.945 56.8481 139.288 56.9495 139.613 57.0947Z" fill="#FF6564"/>
<path d="M135 76.7538C134.713 75.4945 134.333 74.2487 133.96 73.0296C133.587 71.8106 133.08 70.6116 132.567 69.4394L128.907 70.6652L125.233 71.8977C125.788 73.0573 126.267 74.2521 126.667 75.4744C127.081 76.6981 127.419 77.9463 127.68 79.212C129.346 87.1945 127.988 95.5143 123.871 102.544C119.754 109.573 113.175 114.807 105.421 117.22C97.6667 119.634 89.2952 119.054 81.944 115.594C74.5929 112.134 68.7911 106.043 65.6736 98.5121C62.5561 90.9814 62.3472 82.553 65.0878 74.8758C67.8285 67.1985 73.3214 60.8248 80.492 57.0015C87.6627 53.1782 95.9951 52.1803 103.859 54.2032C111.723 56.2261 118.554 61.1241 123.013 67.9391C123.721 69.0311 124.367 70.1627 124.947 71.3283L127.993 68.7964L130.987 66.3047C130.365 65.1538 129.684 64.0359 128.947 62.9557C128.22 61.8907 127.453 60.8726 126.633 59.8812C120.309 52.2905 111.432 47.2956 101.686 45.8438C91.9403 44.3921 82.0028 46.5845 73.7588 52.0052C65.5147 57.426 59.5374 65.698 56.9605 75.2525C54.3836 84.807 55.3863 94.9794 59.7785 103.84C64.1707 112.701 71.6468 119.635 80.789 123.326C89.9312 127.016 100.104 127.208 109.377 123.863C118.65 120.519 126.38 113.872 131.099 105.182C135.818 96.4926 137.199 86.365 134.98 76.7203L135 76.7538Z" fill="#0A268B"/>
<path d="M190.667 84.2623C176 52.1114 137.833 30.5903 95.6933 30.5903H95.5C53.4533 30.6573 15.3733 52.2252 0.72 84.2623L0 85.8967L0.726667 87.5042C15.3933 119.622 53.5533 141.183 95.7 141.183H95.8933C137.94 141.089 176 119.514 190.667 87.4774L191.393 85.8699L190.667 84.2623ZM95.88 133.453H95.7C57.22 133.453 22.46 114.424 8.47333 85.8967C22.42 57.4096 57.1333 38.34 95.52 38.34H95.7C134.18 38.34 168.947 57.3627 182.933 85.8967C168.98 114.337 134.267 133.373 95.88 133.453Z" fill="#0A268B"/>
<path d="M190.667 84.2623C176 52.1114 137.833 30.5903 95.6933 30.5903H95.5C53.4533 30.6573 15.3733 52.2252 0.72 84.2623L0 85.8967L0.726667 87.5042C15.3933 119.622 53.5533 141.183 95.7 141.183H95.8933C137.94 141.089 176 119.514 190.667 87.4774L191.393 85.8699L190.667 84.2623ZM95.88 133.453H95.7C57.22 133.453 22.46 114.424 8.47333 85.8967C22.42 57.4096 57.1333 38.34 95.52 38.34H95.7C134.18 38.34 168.947 57.3627 182.933 85.8967C168.98 114.337 134.267 133.373 95.88 133.453Z" fill="#0A268B"/>
<path d="M95.7 63.8999C84.5067 63.8999 75.42 73.7327 75.42 85.8697C75.42 98.0067 84.5067 107.846 95.7 107.846C106.893 107.846 116 98.0067 116 85.8965C116 73.7863 106.9 63.8999 95.7 63.8999ZM95.5067 99.3999C94.3787 99.4019 93.2562 99.2418 92.1733 98.9243C87.6333 97.645 84.0133 93.7601 82.7333 88.8102C82.5089 87.8303 82.674 86.8011 83.1936 85.9417C83.7132 85.0824 84.5462 84.4608 85.5152 84.2093C86.4841 83.9578 87.5125 84.0964 88.3814 84.5954C89.2502 85.0945 89.8908 85.9146 90.1667 86.8811C90.3949 87.9413 90.8916 88.9243 91.6087 89.7351C92.3258 90.5459 93.239 91.1571 94.26 91.5095C94.6679 91.6258 95.0894 91.6866 95.5133 91.6904C96.0306 91.6687 96.5469 91.7524 97.0312 91.9363C97.5155 92.1203 97.9578 92.4007 98.3314 92.7608C98.7051 93.1209 99.0024 93.5532 99.2055 94.0317C99.4086 94.5101 99.5133 95.0249 99.5133 95.5451C99.5133 96.0653 99.4086 96.5801 99.2055 97.0586C99.0024 97.5371 98.7051 97.9694 98.3314 98.3295C97.9578 98.6896 97.5155 98.97 97.0312 99.154C96.5469 99.3379 96.0306 99.4216 95.5133 99.3999H95.5067Z" fill="#0A268B"/>
<path d="M149.907 58.8763C147.19 56.9191 144.323 55.1811 141.333 53.6786C140.263 53.1409 139.083 52.8589 137.887 52.8547C136.097 52.8549 134.364 53.4826 132.987 54.6297L126.667 59.9145L123.727 62.3728L120.753 64.8377L118.753 66.4854C117.377 67.6352 116.443 69.232 116.114 70.9999C115.785 72.7679 116.08 74.5958 116.95 76.1679C117.82 77.74 119.209 78.9574 120.877 79.6098C122.545 80.2622 124.388 80.3086 126.087 79.741L127.673 79.2118L131.333 77.9794L134.993 76.7536L147.84 72.4467C149.179 71.9962 150.368 71.1834 151.278 70.0978C152.187 69.0123 152.78 67.6959 152.993 66.2934C153.206 64.8908 153.03 63.4565 152.484 62.148C151.939 60.8395 151.044 59.7075 149.9 58.8763H149.907ZM124.967 71.3281L128.013 68.7962L131.007 66.3046L137.887 60.571C140.513 61.8867 143.03 63.4121 145.413 65.1324L132.567 69.4393L128.907 70.665L125.233 71.8975L123.66 72.4266L124.967 71.3281Z" fill="#0A268B"/>
<path d="M66.72 25.8748C66.0226 25.8746 65.3385 25.683 64.7416 25.3206C64.1447 24.9581 63.6577 24.4387 63.3333 23.8184L57.5667 12.8871C57.107 11.9845 57.0194 10.9364 57.3228 9.96942C57.6263 9.00245 58.2964 8.19436 59.1883 7.71993C60.0801 7.2455 61.122 7.14286 62.0886 7.43421C63.0551 7.72557 63.8687 8.38749 64.3533 9.27683L70.1133 20.2081C70.4223 20.7959 70.5749 21.454 70.5563 22.1184C70.5377 22.7829 70.3485 23.4313 70.0072 24.0007C69.6658 24.5701 69.1838 25.0412 68.6078 25.3684C68.0319 25.6956 67.3816 25.8677 66.72 25.8681V25.8748Z" fill="#0A268B"/>
<path d="M95.1933 22.874C94.6874 22.8767 94.1859 22.7788 93.7177 22.5861C93.2495 22.3934 92.8238 22.1097 92.4651 21.7511C92.1064 21.3926 91.8218 20.9664 91.6275 20.497C91.4333 20.0276 91.3333 19.5243 91.3333 19.0159V4.01883C91.3118 3.4991 91.395 2.98035 91.5781 2.49378C91.7612 2.0072 92.0403 1.56285 92.3987 1.18744C92.7571 0.812033 93.1874 0.513317 93.6636 0.309255C94.1399 0.105193 94.6523 0 95.17 0C95.6878 0 96.2001 0.105193 96.6764 0.309255C97.1526 0.513317 97.5829 0.812033 97.9413 1.18744C98.2997 1.56285 98.5788 2.0072 98.7619 2.49378C98.945 2.98035 99.0282 3.4991 99.0067 4.01883V19.0159C99.0067 20.0345 98.6058 21.0118 97.8914 21.7346C97.177 22.4573 96.2071 22.8669 95.1933 22.874Z" fill="#0A268B"/>
<path d="M123.66 25.8747C122.998 25.8744 122.348 25.7022 121.772 25.3751C121.196 25.0479 120.714 24.5768 120.373 24.0074C120.031 23.438 119.842 22.7896 119.824 22.1251C119.805 21.4607 119.958 20.8026 120.267 20.2148L126 9.28352C126.476 8.37575 127.291 7.695 128.266 7.39101C129.241 7.08703 130.296 7.18471 131.2 7.66257C132.103 8.14044 132.781 8.95934 133.084 9.93913C133.386 10.9189 133.289 11.9793 132.813 12.8871L127.053 23.8117C126.729 24.4343 126.242 24.9557 125.643 25.3194C125.045 25.6831 124.359 25.8752 123.66 25.8747Z" fill="#0A268B"/>
</svg>
