<svg width="183" height="120" viewBox="0 0 183 120" fill="none" xmlns="http://www.w3.org/2000/svg">
<path d="M149.349 83.115C147.875 79.9307 146.322 76.7444 144.854 73.8658L141.724 67.728L138.613 73.8759C135.709 79.6166 132.391 86.6317 130.065 92.4729C129.53 92.6664 129.002 92.8522 128.498 93.0228C127.522 93.3531 126.562 93.663 125.59 93.9595L125.581 93.9622L125.572 93.965C114.602 97.3788 103.179 99.112 91.6919 99.106H91.69H91.5033C52.3052 99.106 17.6702 79.5933 3.87204 51.3085C17.6685 23.1041 52.1493 3.56395 91.3157 3.49991C130.584 3.43587 165.298 22.9745 179.129 51.3002C173.095 63.6647 163.073 74.3746 150.368 82.5082C150.201 82.6093 150.01 82.7228 149.804 82.8449C149.658 82.9311 149.506 83.0215 149.349 83.115ZM77.2257 85.6923C81.7702 87.5224 86.632 88.4307 91.5296 88.3646C98.072 88.354 104.495 86.6069 110.144 83.3015C115.8 79.9922 120.477 75.2396 123.701 69.5291C126.924 63.8186 128.579 57.3541 128.496 50.7948C128.423 45.0846 127.036 39.4798 124.457 34.4123C120.63 26.8951 114.845 21.2727 107.033 17.6297C102.176 15.3648 96.8821 14.1944 91.5246 14.2012C86.6287 14.1357 81.7686 15.0441 77.2257 16.8735C72.6741 18.7065 68.5318 21.4275 65.0396 24.8781C61.5473 28.3286 58.7745 32.4399 56.8822 36.9727C54.9898 41.5056 54.0154 46.3698 54.0154 51.2829C54.0154 56.196 54.9898 61.0602 56.8822 65.5931C58.7745 70.1259 61.5473 74.2372 65.0396 77.6877C68.5318 81.1383 72.6741 83.8593 77.2257 85.6923Z" fill="#FF6564" stroke="#0A268B" stroke-width="7"/>
<path d="M101.992 31.1527L101.992 31.149C101.99 29.6205 102.451 28.128 103.313 26.8684C104.174 25.6089 105.396 24.6418 106.815 24.0934L106.825 24.0897L106.834 24.0859C107.699 23.7458 108.62 23.5721 109.549 23.5735L109.552 23.5735C111.553 23.5747 113.473 24.372 114.89 25.7924C116.307 27.2131 117.104 29.141 117.104 31.1527C117.104 33.1652 116.306 35.0937 114.888 36.5146C113.471 37.9351 111.55 38.7319 109.548 38.7319C107.546 38.7319 105.625 37.9351 104.208 36.5146C102.79 35.0937 101.992 33.1652 101.992 31.1527Z" fill="#0A268B" stroke="#0A268B" stroke-width="7"/>
<mask id="path-3-inside-1" fill="white">
<path d="M152.219 85.4861C148.685 77.5944 144.757 70.117 143.99 68.6803C143.771 68.2734 143.445 67.934 143.048 67.6986C142.651 67.4631 142.198 67.3405 141.736 67.3438C141.274 67.3415 140.82 67.4645 140.422 67.6997C140.024 67.935 139.697 68.2738 139.476 68.6803C138.309 70.8854 129.86 86.9362 126.612 97.3071C125.908 99.3281 125.488 101.438 125.365 103.575C125.365 105.733 125.789 107.87 126.613 109.863C127.438 111.857 128.645 113.668 130.168 115.194C131.691 116.72 133.498 117.93 135.488 118.756C137.477 119.582 139.609 120.007 141.763 120.007C143.916 120.007 146.048 119.582 148.038 118.756C150.027 117.93 151.835 116.72 153.358 115.194C154.88 113.668 156.088 111.857 156.912 109.863C157.736 107.87 158.16 105.733 158.16 103.575C158.134 99.7728 155.333 92.4758 152.219 85.4861ZM141.736 114.888C140.254 114.887 138.787 114.594 137.419 114.025C136.05 113.456 134.807 112.622 133.76 111.572C132.713 110.521 131.882 109.274 131.316 107.902C130.75 106.53 130.459 105.06 130.46 103.575C130.46 101.884 131.36 98.8974 132.754 95.2155C135.021 89.275 138.602 81.6572 141.736 75.4628C143.737 79.3852 145.897 83.8891 147.791 88.159C150.725 94.7745 153.012 100.855 153.012 103.562C153.012 106.559 151.825 109.434 149.71 111.554C147.596 113.674 144.727 114.866 141.736 114.868V114.888Z"/>
</mask>
<path d="M152.219 85.4861C148.685 77.5944 144.757 70.117 143.99 68.6803C143.771 68.2734 143.445 67.934 143.048 67.6986C142.651 67.4631 142.198 67.3405 141.736 67.3438C141.274 67.3415 140.82 67.4645 140.422 67.6997C140.024 67.935 139.697 68.2738 139.476 68.6803C138.309 70.8854 129.86 86.9362 126.612 97.3071C125.908 99.3281 125.488 101.438 125.365 103.575C125.365 105.733 125.789 107.87 126.613 109.863C127.438 111.857 128.645 113.668 130.168 115.194C131.691 116.72 133.498 117.93 135.488 118.756C137.477 119.582 139.609 120.007 141.763 120.007C143.916 120.007 146.048 119.582 148.038 118.756C150.027 117.93 151.835 116.72 153.358 115.194C154.88 113.668 156.088 111.857 156.912 109.863C157.736 107.87 158.16 105.733 158.16 103.575C158.134 99.7728 155.333 92.4758 152.219 85.4861ZM141.736 114.888C140.254 114.887 138.787 114.594 137.419 114.025C136.05 113.456 134.807 112.622 133.76 111.572C132.713 110.521 131.882 109.274 131.316 107.902C130.75 106.53 130.459 105.06 130.46 103.575C130.46 101.884 131.36 98.8974 132.754 95.2155C135.021 89.275 138.602 81.6572 141.736 75.4628C143.737 79.3852 145.897 83.8891 147.791 88.159C150.725 94.7745 153.012 100.855 153.012 103.562C153.012 106.559 151.825 109.434 149.71 111.554C147.596 113.674 144.727 114.866 141.736 114.868V114.888Z" fill="#0A268B"/>
<path d="M152.219 85.4861L158.613 82.6374L158.607 82.6251L152.219 85.4861ZM143.99 68.6803L150.165 65.384L150.159 65.3722L150.153 65.3603L143.99 68.6803ZM141.736 67.3438L141.701 74.3437L141.743 74.3439L141.786 74.3436L141.736 67.3438ZM139.476 68.6803L133.329 65.3316L133.308 65.3687L133.289 65.4061L139.476 68.6803ZM126.612 97.3071L133.222 99.6108L133.259 99.5054L133.292 99.3989L126.612 97.3071ZM125.365 103.575L118.377 103.173L118.365 103.374V103.575H125.365ZM158.16 103.575H165.16V103.55L165.16 103.526L158.16 103.575ZM141.736 114.888L141.732 121.888L148.736 121.892V114.888H141.736ZM130.46 103.575L137.46 103.579V103.575H130.46ZM132.754 95.2155L126.214 92.7195L126.211 92.7285L126.207 92.7375L132.754 95.2155ZM141.736 75.4628L147.972 72.2824L141.711 60.0068L135.49 72.3025L141.736 75.4628ZM147.791 88.159L141.392 90.9971L147.791 88.159ZM153.012 103.562H146.012V103.562L153.012 103.562ZM141.736 114.868L141.732 107.868L134.736 107.872V114.868H141.736ZM158.607 82.6251C154.979 74.5226 150.967 66.8851 150.165 65.384L137.815 71.9765C138.547 73.3488 142.39 80.6662 145.83 88.3472L158.607 82.6251ZM150.153 65.3603C149.331 63.8358 148.11 62.562 146.618 61.6775L139.478 73.7197C138.78 73.3061 138.21 72.7111 137.827 72.0002L150.153 65.3603ZM146.618 61.6775C145.127 60.7929 143.421 60.3315 141.686 60.344L141.786 74.3436C140.974 74.3495 140.176 74.1334 139.478 73.7197L146.618 61.6775ZM141.772 60.3439C140.044 60.3351 138.346 60.7951 136.86 61.674L143.984 73.7255C143.294 74.1338 142.505 74.3478 141.701 74.3437L141.772 60.3439ZM136.86 61.674C135.373 62.5528 134.154 63.8172 133.329 65.3316L145.623 72.029C145.24 72.7305 144.675 73.3172 143.984 73.7255L136.86 61.674ZM133.289 65.4061C132.2 67.4628 123.409 84.1106 119.932 95.2153L133.292 99.3989C136.31 89.7617 144.417 74.308 145.663 71.9545L133.289 65.4061ZM120.002 95.0033C119.084 97.6379 118.537 100.388 118.377 103.173L132.354 103.977C132.439 102.488 132.732 101.018 133.222 99.6108L120.002 95.0033ZM118.365 103.575C118.365 106.65 118.97 109.695 120.144 112.537L133.083 107.189C132.609 106.044 132.365 104.816 132.365 103.575H118.365ZM120.144 112.537C121.319 115.379 123.041 117.962 125.213 120.139L135.123 110.249C134.25 109.374 133.556 108.334 133.083 107.189L120.144 112.537ZM125.213 120.139C127.385 122.315 129.964 124.042 132.804 125.221L138.171 112.291C137.032 111.818 135.996 111.125 135.123 110.249L125.213 120.139ZM132.804 125.221C135.644 126.4 138.688 127.007 141.763 127.007V113.007C140.531 113.007 139.31 112.764 138.171 112.291L132.804 125.221ZM141.763 127.007C144.837 127.007 147.882 126.4 150.721 125.221L145.354 112.291C144.215 112.764 142.995 113.007 141.763 113.007V127.007ZM150.721 125.221C153.561 124.042 156.141 122.315 158.313 120.139L148.403 110.249C147.529 111.125 146.493 111.818 145.354 112.291L150.721 125.221ZM158.313 120.139C160.484 117.962 162.207 115.379 163.381 112.537L150.443 107.189C149.97 108.334 149.276 109.374 148.403 110.249L158.313 120.139ZM163.381 112.537C164.556 109.695 165.16 106.65 165.16 103.575H151.16C151.16 104.816 150.916 106.044 150.443 107.189L163.381 112.537ZM165.16 103.526C165.138 100.382 164.072 96.6596 162.966 93.4466C161.779 90.0003 160.209 86.2208 158.613 82.6374L145.825 88.3349C147.342 91.7411 148.73 95.1049 149.729 98.0051C150.808 101.139 151.156 102.966 151.161 103.624L165.16 103.526ZM141.74 107.888C141.18 107.888 140.625 107.777 140.106 107.561L134.732 120.488C136.95 121.411 139.329 121.887 141.732 121.888L141.74 107.888ZM140.106 107.561C139.588 107.346 139.116 107.03 138.718 106.63L128.802 116.513C130.498 118.215 132.513 119.566 134.732 120.488L140.106 107.561ZM138.718 106.63C138.32 106.231 138.003 105.756 137.787 105.232L124.846 110.573C125.762 112.793 127.106 114.812 128.802 116.513L138.718 106.63ZM137.787 105.232C137.571 104.708 137.46 104.147 137.46 103.579L123.46 103.571C123.459 105.973 123.929 108.352 124.846 110.573L137.787 105.232ZM137.46 103.575C137.46 103.728 137.462 103.318 137.822 102.039C138.144 100.895 138.64 99.4386 139.301 97.6936L126.207 92.7375C125.474 94.6744 124.823 96.5524 124.346 98.2452C123.908 99.8028 123.46 101.732 123.46 103.575H137.46ZM139.294 97.7115C141.435 92.1019 144.891 84.7318 147.982 78.623L135.49 72.3025C132.313 78.5826 128.608 86.448 126.214 92.7195L139.294 97.7115ZM135.5 78.6431C137.448 82.462 139.554 86.8515 141.392 90.9971L154.19 85.321C152.241 80.9266 150.025 76.3085 147.972 72.2824L135.5 78.6431ZM141.392 90.9971C142.821 94.2192 144.043 97.2014 144.894 99.6358C145.32 100.854 145.623 101.852 145.813 102.622C146.024 103.475 146.012 103.722 146.012 103.562H160.012C160.012 100.875 159.027 97.64 158.11 95.0167C157.084 92.0803 155.695 88.7143 154.19 85.321L141.392 90.9971ZM146.012 103.562C146.012 104.708 145.558 105.805 144.754 106.611L154.666 116.497C158.091 113.063 160.012 108.41 160.012 103.562L146.012 103.562ZM144.754 106.611C143.95 107.417 142.863 107.867 141.732 107.868L141.74 121.868C146.592 121.865 151.241 119.932 154.666 116.497L144.754 106.611ZM134.736 114.868V114.888H148.736V114.868H134.736Z" fill="#0A268B" mask="url(#path-3-inside-1)"/>
</svg>
