<svg width="113" height="106" viewBox="0 0 113 106" fill="none" xmlns="http://www.w3.org/2000/svg">
<path d="M4 48.4619V91.4619C4 96.9848 8.47715 101.462 14 101.462H99C104.523 101.462 109 96.9848 109 91.4619V48.4619M4 48.4619V26.4619C4 20.9391 8.47715 16.4619 14 16.4619H29M4 48.4619H109M109 48.4619V26.4619C109 20.9391 104.523 16.4619 99 16.4619H82.5M29 16.4619V4.96191M29 16.4619V28.4619M29 16.4619H82.5M82.5 16.4619V28.4619M82.5 16.4619V4.96191" stroke="#0A268B" stroke-width="8" stroke-linecap="round" stroke-linejoin="round"/>
<rect x="14" y="59.4619" width="13" height="13" rx="2" fill="#FF6564"/>
<rect x="14" y="77.4619" width="13" height="13" rx="2" fill="#FF6564"/>
<rect x="32" y="59.4619" width="13" height="13" rx="2" fill="#FF6564"/>
<rect x="32" y="77.4619" width="13" height="13" rx="2" fill="#FF6564"/>
<rect x="50" y="59.4619" width="13" height="13" rx="2" fill="#FF6564"/>
<rect x="50" y="77.4619" width="13" height="13" rx="2" fill="#FF6564"/>
<rect x="68" y="59.4619" width="13" height="13" rx="2" fill="#FF6564"/>
<rect x="68" y="77.4619" width="13" height="13" rx="2" fill="#FF6564"/>
<rect x="86" y="59.4619" width="13" height="13" rx="2" fill="#FF6564"/>
<rect x="86" y="77.4619" width="13" height="13" rx="2" fill="#FF6564"/>
</svg>
