<svg width="186" height="143" viewBox="0 0 186 143" fill="none" xmlns="http://www.w3.org/2000/svg">
<path d="M185.287 87.9897C171.034 56.8887 133.977 36.0898 92.9676 36.0898H92.7732C51.9582 36.1546 14.9655 57.0183 0.712644 87.9897L0 89.5448L0.712644 91.0998C14.9655 122.201 52.023 143 93.0324 143H93.2267C134.107 142.935 171.099 122.071 185.287 91.0998L186 89.5448L185.287 87.9897ZM93.162 135.548H92.9676C55.5862 135.548 21.768 117.147 8.2278 89.5448C21.768 62.0074 55.5214 43.6059 92.838 43.5411H93.0324C130.414 43.5411 164.232 61.9426 177.772 89.5448C164.232 117.082 130.479 135.484 93.162 135.548Z" fill="#0A268B"/>
<path d="M93.0324 63.1738C78.4556 63.1738 66.6646 74.9663 66.6646 89.5449C66.6646 104.124 78.4556 115.916 93.0324 115.916C107.609 115.916 119.4 104.124 119.4 89.5449C119.4 74.9663 107.544 63.1738 93.0324 63.1738ZM95.3647 105.031C94.9112 106.003 93.9394 106.521 93.0324 106.521C92.1254 106.521 91.1536 106.067 90.7001 105.031L86.6834 97.061C86.4242 96.5427 86.0355 96.1539 85.5172 95.8947L77.5486 91.9423C75.605 90.9704 75.605 88.1843 77.5486 87.2123L85.5172 83.1951C86.0355 82.9359 86.4242 82.5472 86.6834 82.0288L90.7001 74.0592C91.1536 73.0873 92.1254 72.6337 93.0324 72.6337C94.0042 72.6337 94.9112 73.0873 95.3647 74.0592L99.3166 82.0288C99.5757 82.5472 99.9645 82.9359 100.483 83.1951L108.451 87.2123C110.395 88.1843 110.395 90.9704 108.451 91.9423L100.483 95.8947C99.9645 96.1539 99.5757 96.5427 99.3166 97.061L95.3647 105.031Z" fill="#439AFF"/>
<path d="M93.0324 50.3447C71.394 50.3447 53.837 67.9039 53.837 89.545C53.837 111.186 71.394 128.745 93.0324 128.745C114.671 128.745 132.228 111.186 132.228 89.545C132.228 67.9039 114.606 50.3447 93.0324 50.3447ZM93.0324 121.294C75.5402 121.294 61.2874 107.039 61.2874 89.545C61.2874 72.0507 75.5402 57.796 93.0324 57.796C110.525 57.796 124.777 72.0507 124.777 89.545C124.713 107.039 110.525 121.294 93.0324 121.294Z" fill="#0A268B"/>
<path d="M110.719 82.7415L103.463 79.113L99.8349 71.8561C98.5392 69.2644 95.9478 67.6445 93.0324 67.6445C90.117 67.6445 87.5256 69.2644 86.2299 71.8561L82.6019 79.113L75.3459 82.7415C72.7544 84.0374 71.1348 86.6291 71.1348 89.5448C71.1348 92.4606 72.7544 95.0523 75.3459 96.3482L82.6019 99.9767L86.2299 107.234C87.5256 109.825 90.117 111.445 93.0324 111.445C95.9478 111.445 98.5392 109.825 99.8349 107.234L103.463 99.9767L110.719 96.3482C113.31 95.0523 114.93 92.4606 114.93 89.5448C114.93 86.6291 113.31 84.0374 110.719 82.7415ZM108.516 91.8774L100.548 95.8298C100.029 96.089 99.6406 96.4778 99.3814 96.9961L95.4295 104.966C94.976 105.938 94.0042 106.456 93.0972 106.456C92.1902 106.456 91.2184 106.002 90.7649 104.966L86.7482 96.9961C86.489 96.4778 86.1003 96.089 85.582 95.8298L77.6134 91.8774C75.6698 90.9055 75.6698 88.1194 77.6134 87.1475L85.582 83.1303C86.1003 82.8711 86.489 82.4823 86.7482 81.964L90.7649 73.9943C91.2184 73.0224 92.1902 72.5689 93.0972 72.5689C94.069 72.5689 94.976 73.0224 95.4295 73.9943L99.3814 81.964C99.6406 82.4823 100.029 82.8711 100.548 83.1303L108.516 87.1475C110.46 88.1842 110.46 90.9055 108.516 91.8774Z" fill="#439AFF"/>
<path d="M24.489 47.2341C23.3229 47.2341 22.0919 46.6509 21.3793 45.6142L12.1797 32.0075C11.0136 30.3229 11.4671 27.9903 13.1515 26.824C14.8359 25.6577 17.1682 26.1113 18.3344 27.7959L27.534 41.4026C28.7001 43.0873 28.2466 45.4199 26.5622 46.5861C25.9791 46.9749 25.2017 47.2341 24.489 47.2341Z" fill="#0A268B"/>
<path d="M45.8036 35.9605C44.3783 35.9605 43.0178 35.1182 42.4347 33.7575L35.1139 17.6886C34.2717 15.8096 35.1139 13.6066 36.9927 12.7643C38.8715 11.922 41.0742 12.7643 41.9164 14.6433L49.2372 30.7122C50.0794 32.5912 49.2372 34.7942 47.3584 35.6365C46.8401 35.8957 46.3218 35.9605 45.8036 35.9605Z" fill="#0A268B"/>
<path d="M70.0334 29.028C68.2842 29.028 66.7294 27.7969 66.4054 26.0475L62.6479 7.77562C62.1944 5.76701 63.4901 3.8232 65.5632 3.36964C67.5716 2.98088 69.5799 4.27675 69.9686 6.28536L73.7262 24.4924C74.1149 26.501 72.8192 28.5096 70.8109 28.8984C70.5517 28.9632 70.2926 29.028 70.0334 29.028Z" fill="#0A268B"/>
<path d="M93.0324 26.9542C90.9593 26.9542 89.2748 25.2696 89.2748 23.1962V3.75804C89.2748 1.68464 90.9593 0 93.0324 0C95.1055 0 96.79 1.68464 96.79 3.75804V23.261C96.7252 25.2696 95.0408 26.9542 93.0324 26.9542Z" fill="#0A268B"/>
<path d="M161.511 47.2341C160.798 47.2341 160.086 47.0397 159.438 46.5861C157.753 45.4199 157.3 43.0873 158.466 41.4026L167.666 27.7959C168.832 26.1113 171.164 25.6577 172.848 26.824C174.533 27.9903 174.986 30.3229 173.82 32.0075L164.621 45.6142C163.843 46.6509 162.677 47.2341 161.511 47.2341Z" fill="#0A268B"/>
<path d="M140.196 35.9605C139.678 35.9605 139.16 35.8309 138.642 35.6365C136.763 34.7942 135.921 32.5912 136.763 30.7122L144.084 14.6433C144.926 12.7643 147.129 11.922 149.007 12.7643C150.886 13.6066 151.728 15.8096 150.886 17.6886L143.565 33.7575C142.982 35.183 141.622 35.9605 140.196 35.9605Z" fill="#0A268B"/>
<path d="M115.967 29.0277C115.707 29.0277 115.448 29.0277 115.189 28.9629C113.181 28.5741 111.885 26.5655 112.274 24.5569L116.031 6.34982C116.42 4.34121 118.428 3.04533 120.437 3.43409C122.445 3.82286 123.741 5.83147 123.352 7.84007L119.595 26.0471C119.271 27.7966 117.716 29.0277 115.967 29.0277Z" fill="#0A268B"/>
</svg>
