<svg width="187" height="107" viewBox="0 0 187 107" fill="none" xmlns="http://www.w3.org/2000/svg">
<path d="M186.284 51.9122C171.954 20.8686 134.697 0 93.5326 0H93.3372C52.2375 0.0648092 15.046 20.9334 0.716475 51.9122L0 53.4676L0.716475 55.0878C15.046 86.1314 52.3027 107 93.5326 107H93.728C134.762 106.935 171.954 86.0666 186.284 55.0878L187 53.5324L186.284 51.9122ZM93.6628 99.5469H93.4674C55.8851 99.5469 21.8851 81.1411 8.27203 53.5324C21.8851 25.9885 55.8199 7.58268 93.3372 7.51787H93.5326C131.115 7.51787 165.115 25.9237 178.728 53.5324C165.115 81.0115 131.18 99.4821 93.6628 99.5469Z" fill="#0A268B"/>
<path d="M123.69 30.9783L123.625 30.9135L116.199 27.2194C115.743 26.9601 115.352 26.5713 115.092 26.1176L112.552 21.0625C114.05 21.905 115.483 22.8772 116.785 23.9789C117.567 24.5622 118.284 25.2103 119 25.8584C120.759 27.4138 122.322 29.1636 123.69 30.9783Z" fill="#0A268B"/>
<path d="M127.923 38.1726C127.533 37.33 127.142 36.4875 126.686 35.7098C126.1 34.6729 125.513 33.7007 124.862 32.7286C124.992 33.7007 124.602 34.8025 123.559 35.321L116.134 39.0151C115.678 39.2743 115.287 39.5984 115.027 40.1168L111.314 47.5051C110.858 48.4124 110.011 48.8661 109.1 48.8661C108.253 48.8661 107.341 48.4124 106.885 47.5051L103.172 40.1168C102.912 39.6632 102.521 39.2743 102.065 39.0151L94.6398 35.321C92.8161 34.4136 92.8161 31.8861 94.6398 30.9787L102.261 27.2198C102.716 26.9606 103.107 26.5717 103.368 26.118L107.08 18.7946C107.146 18.665 107.211 18.6002 107.211 18.5354C106.429 18.2113 105.647 17.9521 104.801 17.6929C104.019 17.4336 103.172 17.2392 102.326 17.0448C99.4598 16.3319 96.5287 16.0078 93.4674 16.0078C72.6245 16.0078 55.7548 32.7934 55.7548 53.5323C55.7548 74.2713 72.6897 91.0569 93.4674 91.0569C114.245 91.0569 131.18 74.2065 131.18 53.5323C131.245 48.0236 130.073 42.8388 127.923 38.1726ZM93.5326 68.0496C85.4559 68.0496 78.9425 61.5687 78.9425 53.5323C78.9425 46.1441 84.4789 40.052 91.5785 39.1447C91.9042 39.4039 92.295 39.5984 92.6207 39.7928L99.2644 43.0981L102.586 49.7086C103.693 51.9121 105.778 53.3379 108.123 53.7268C108.057 61.5687 101.544 68.0496 93.5326 68.0496Z" fill="#439AFF"/>
<path d="M125.839 26.4421L119.195 23.1369L115.874 16.5263C114.571 13.9988 112.031 12.4434 109.23 12.4434C106.364 12.4434 103.824 13.9988 102.586 16.5263L102.391 16.98L99.2644 23.1369L92.6207 26.4421C90.0805 27.6735 88.5172 30.2659 88.5172 33.0527C88.5172 35.4506 89.6897 37.6541 91.5786 39.0151C91.9042 39.2744 92.295 39.4688 92.6207 39.6632L99.2644 42.9685L102.586 49.579C103.693 51.7825 105.778 53.2084 108.123 53.5972C108.513 53.662 108.904 53.662 109.23 53.662C112.096 53.662 114.636 52.1066 115.874 49.579L119.195 42.9685L125.839 39.6632C126.621 39.2744 127.337 38.7559 127.923 38.1078C129.226 36.7468 129.943 34.9322 129.943 33.0527C129.943 30.2659 128.379 27.7383 125.839 26.4421ZM123.625 35.2562L116.199 38.9503C115.743 39.2096 115.353 39.5336 115.092 40.0521L111.379 47.4403C110.923 48.3477 110.077 48.8013 109.165 48.8013C108.318 48.8013 107.406 48.3477 106.95 47.4403L103.238 40.0521C102.977 39.5984 102.586 39.2096 102.13 38.9503L94.705 35.2562C92.8812 34.3489 92.8812 31.8213 94.705 30.914L102.261 27.2199C102.716 26.9606 103.107 26.5718 103.368 26.1181L107.08 18.7947C107.146 18.665 107.211 18.6002 107.211 18.5354C107.667 17.8225 108.448 17.4337 109.23 17.4337C110.077 17.4337 110.989 17.8873 111.444 18.7947L112.617 21.1278L115.157 26.1829C115.418 26.6366 115.808 27.0254 116.264 27.2847L123.69 30.9788C123.755 30.9788 123.755 31.0436 123.755 31.0436C124.471 31.4325 124.862 32.0805 124.992 32.7934C125.123 33.7008 124.667 34.7377 123.625 35.2562Z" fill="#0A268B"/>
</svg>
