<svg width="188" height="108" viewBox="0 0 188 108" fill="none" xmlns="http://www.w3.org/2000/svg">
<path d="M187.2 52.4291C172.8 21.0764 135.36 0 93.9927 0H93.7964C52.4945 0.0654545 15.12 21.1418 0.72 52.4291L0 54L0.72 55.5709C15.12 86.9891 52.6255 108 93.9927 108H94.1891C135.425 108 172.8 86.9236 187.2 55.5709L187.92 54L187.2 52.4291ZM94.1236 100.538H93.9273C56.16 100.538 21.9927 81.9491 8.31273 54.0655C21.9927 26.2473 56.0945 7.65818 93.7964 7.59273H93.9927C131.76 7.59273 165.927 26.1818 179.607 54.0655C165.927 81.8182 131.825 100.473 94.1236 100.538Z" fill="#0A268B"/>
<path d="M131 54C131 74.4345 114.435 91 94 91C73.5655 91 57 74.4345 57 54C57 48.0709 58.3946 42.4675 60.8737 37.5C62.3233 34.5952 64.5 43 70.5 34C78.5 28 70.5507 25.2185 73.0475 23.5C79.0043 19.4001 86.2219 17 94 17C114.435 17 131 33.5655 131 54Z" fill="#439AFF"/>
<circle cx="94" cy="52" r="22" fill="white"/>
<path d="M93.9927 29.7168C80.5746 29.7168 69.7091 40.6477 69.7091 54.0004C69.7091 67.3532 80.64 78.2841 93.9927 78.2841C107.345 78.2841 118.276 67.3532 118.276 54.0004C118.276 40.6477 107.345 29.7168 93.9927 29.7168ZM93.9927 70.8223C84.7636 70.8223 77.2364 63.295 77.2364 54.0659C77.2364 44.8368 84.7636 37.3095 93.9927 37.3095C103.222 37.3095 110.749 44.8368 110.749 54.0659C110.749 63.295 103.222 70.8223 93.9927 70.8223Z" fill="#0A268B"/>
<path d="M68.3346 31.1556C68.0727 31.2865 67.8764 31.4829 67.7455 31.7447L67.2218 32.8574C67.7455 32.2029 68.3346 31.5483 68.8582 30.8938L68.3346 31.1556ZM68.3346 31.1556C68.0727 31.2865 67.8764 31.4829 67.7455 31.7447L67.2218 32.8574C67.7455 32.2029 68.3346 31.5483 68.8582 30.8938L68.3346 31.1556ZM68.3346 31.1556C68.0727 31.2865 67.8764 31.4829 67.7455 31.7447L67.2218 32.8574C67.7455 32.2029 68.3346 31.5483 68.8582 30.8938L68.3346 31.1556ZM68.3346 31.1556C68.0727 31.2865 67.8764 31.4829 67.7455 31.7447L67.2218 32.8574C67.7455 32.2029 68.3346 31.5483 68.8582 30.8938L68.3346 31.1556ZM68.3346 31.1556C68.0727 31.2865 67.8764 31.4829 67.7455 31.7447L67.2218 32.8574C67.7455 32.2029 68.3346 31.5483 68.8582 30.8938L68.3346 31.1556ZM68.3346 31.1556C68.0727 31.2865 67.8764 31.4829 67.7455 31.7447L67.2218 32.8574C67.7455 32.2029 68.3346 31.5483 68.8582 30.8938L68.3346 31.1556ZM68.3346 31.1556C68.0727 31.2865 67.8764 31.4829 67.7455 31.7447L67.2218 32.8574C67.7455 32.2029 68.3346 31.5483 68.8582 30.8938L68.3346 31.1556ZM68.3346 31.1556C68.0727 31.2865 67.8764 31.4829 67.7455 31.7447L67.2218 32.8574C67.7455 32.2029 68.3346 31.5483 68.8582 30.8938L68.3346 31.1556ZM68.3346 31.1556C68.0727 31.2865 67.8764 31.4829 67.7455 31.7447L67.2218 32.8574C67.7455 32.2029 68.3346 31.5483 68.8582 30.8938L68.3346 31.1556ZM68.3346 31.1556C68.0727 31.2865 67.8764 31.4829 67.7455 31.7447L67.2218 32.8574C67.7455 32.2029 68.3346 31.5483 68.8582 30.8938L68.3346 31.1556ZM68.3346 31.1556C68.0727 31.2865 67.8764 31.4829 67.7455 31.7447L67.2218 32.8574C67.7455 32.2029 68.3346 31.5483 68.8582 30.8938L68.3346 31.1556ZM68.3346 31.1556C68.0727 31.2865 67.8764 31.4829 67.7455 31.7447L67.2218 32.8574C67.7455 32.2029 68.3346 31.5483 68.8582 30.8938L68.3346 31.1556ZM68.3346 31.1556C68.0727 31.2865 67.8764 31.4829 67.7455 31.7447L67.2218 32.8574C67.7455 32.2029 68.3346 31.5483 68.8582 30.8938L68.3346 31.1556ZM68.3346 31.1556C68.0727 31.2865 67.8764 31.4829 67.7455 31.7447L67.2218 32.8574C67.7455 32.2029 68.3346 31.5483 68.8582 30.8938L68.3346 31.1556ZM68.3346 31.1556C68.0727 31.2865 67.8764 31.4829 67.7455 31.7447L67.2218 32.8574C67.7455 32.2029 68.3346 31.5483 68.8582 30.8938L68.3346 31.1556ZM68.3346 31.1556C68.0727 31.2865 67.8764 31.4829 67.7455 31.7447L67.2218 32.8574C67.7455 32.2029 68.3346 31.5483 68.8582 30.8938L68.3346 31.1556ZM68.3346 31.1556C68.0727 31.2865 67.8764 31.4829 67.7455 31.7447L67.2218 32.8574C67.7455 32.2029 68.3346 31.5483 68.8582 30.8938L68.3346 31.1556ZM68.3346 31.1556C68.0727 31.2865 67.8764 31.4829 67.7455 31.7447L67.2218 32.8574C67.7455 32.2029 68.3346 31.5483 68.8582 30.8938L68.3346 31.1556ZM68.3346 31.1556C68.0727 31.2865 67.8764 31.4829 67.7455 31.7447L67.2218 32.8574C67.7455 32.2029 68.3346 31.5483 68.8582 30.8938L68.3346 31.1556ZM68.3346 31.1556C68.0727 31.2865 67.8764 31.4829 67.7455 31.7447L67.2218 32.8574C67.7455 32.2029 68.3346 31.5483 68.8582 30.8938L68.3346 31.1556ZM68.3346 31.1556C68.0727 31.2865 67.8764 31.4829 67.7455 31.7447L67.2218 32.8574C67.7455 32.2029 68.3346 31.5483 68.8582 30.8938L68.3346 31.1556ZM68.3346 31.1556C68.0727 31.2865 67.8764 31.4829 67.7455 31.7447L67.2218 32.8574C67.7455 32.2029 68.3346 31.5483 68.8582 30.8938L68.3346 31.1556ZM68.3346 31.1556C68.0727 31.2865 67.8764 31.4829 67.7455 31.7447L67.2218 32.8574C67.7455 32.2029 68.3346 31.5483 68.8582 30.8938L68.3346 31.1556ZM68.3346 31.1556C68.0727 31.2865 67.8764 31.4829 67.7455 31.7447L67.2218 32.8574C67.7455 32.2029 68.3346 31.5483 68.8582 30.8938L68.3346 31.1556ZM68.3346 31.1556C68.0727 31.2865 67.8764 31.4829 67.7455 31.7447L67.2218 32.8574C67.7455 32.2029 68.3346 31.5483 68.8582 30.8938L68.3346 31.1556ZM68.3346 31.1556C68.0727 31.2865 67.8764 31.4829 67.7455 31.7447L67.2218 32.8574C67.7455 32.2029 68.3346 31.5483 68.8582 30.8938L68.3346 31.1556ZM68.3346 31.1556C68.0727 31.2865 67.8764 31.4829 67.7455 31.7447L67.2218 32.8574C67.7455 32.2029 68.3346 31.5483 68.8582 30.8938L68.3346 31.1556ZM68.3346 31.1556C68.0727 31.2865 67.8764 31.4829 67.7455 31.7447L67.2218 32.8574C67.7455 32.2029 68.3346 31.5483 68.8582 30.8938L68.3346 31.1556ZM68.3346 31.1556C68.0727 31.2865 67.8764 31.4829 67.7455 31.7447L67.2218 32.8574C67.7455 32.2029 68.3346 31.5483 68.8582 30.8938L68.3346 31.1556ZM93.9927 12.3047C85.4837 12.3047 77.5636 14.8574 70.9527 19.2429C70.2327 19.7011 69.5782 20.2247 68.8582 20.6829C68.1382 21.2065 67.4836 21.7301 66.8291 22.3192L67.7455 24.0865C67.8764 24.3483 68.0727 24.5447 68.3346 24.6756L72.3273 26.7047C72.5236 26.8356 72.72 26.9665 72.8509 27.1629C73.5055 26.6392 74.16 26.1156 74.88 25.6574C75.6 25.1992 76.32 24.7411 77.04 24.3483C82.0146 21.4683 87.7746 19.832 93.9927 19.832C112.844 19.832 128.16 35.1483 128.16 53.9992C128.16 72.8501 112.844 88.1665 93.9927 88.1665C75.1418 88.1665 59.8255 72.8501 59.8255 53.9992C59.8255 49.4174 60.7418 45.0974 62.3782 41.1047C62.7055 40.3192 63.0327 39.5338 63.4255 38.8138C63.8182 38.0283 64.2109 37.2429 64.6691 36.4574C64.6037 36.4574 64.6036 36.4574 64.5382 36.4574C64.08 36.4574 63.6218 36.1956 63.36 35.7374L61.3309 31.7447C61.2 31.4829 61.0036 31.2865 60.7418 31.1556L59.4982 30.5011C59.04 31.2211 58.5818 31.8756 58.1237 32.6611C57.6655 33.3811 57.2727 34.1011 56.88 34.8211C53.9346 40.5811 52.2982 47.1265 52.2982 53.9992C52.2982 76.9738 71.0182 95.6938 93.9927 95.6938C116.967 95.6938 135.687 76.9738 135.687 53.9992C135.687 31.0247 116.967 12.3047 93.9927 12.3047ZM67.7455 31.7447L67.2218 32.8574C67.7455 32.2029 68.3346 31.5483 68.8582 30.8938L68.3346 31.1556C68.0727 31.2865 67.8764 31.4829 67.7455 31.7447ZM68.3346 31.1556C68.0727 31.2865 67.8764 31.4829 67.7455 31.7447L67.2218 32.8574C67.7455 32.2029 68.3346 31.5483 68.8582 30.8938L68.3346 31.1556ZM68.3346 31.1556C68.0727 31.2865 67.8764 31.4829 67.7455 31.7447L67.2218 32.8574C67.7455 32.2029 68.3346 31.5483 68.8582 30.8938L68.3346 31.1556ZM68.3346 31.1556C68.0727 31.2865 67.8764 31.4829 67.7455 31.7447L67.2218 32.8574C67.7455 32.2029 68.3346 31.5483 68.8582 30.8938L68.3346 31.1556ZM68.3346 31.1556C68.0727 31.2865 67.8764 31.4829 67.7455 31.7447L67.2218 32.8574C67.7455 32.2029 68.3346 31.5483 68.8582 30.8938L68.3346 31.1556ZM68.3346 31.1556C68.0727 31.2865 67.8764 31.4829 67.7455 31.7447L67.2218 32.8574C67.7455 32.2029 68.3346 31.5483 68.8582 30.8938L68.3346 31.1556ZM68.3346 31.1556C68.0727 31.2865 67.8764 31.4829 67.7455 31.7447L67.2218 32.8574C67.7455 32.2029 68.3346 31.5483 68.8582 30.8938L68.3346 31.1556ZM68.3346 31.1556C68.0727 31.2865 67.8764 31.4829 67.7455 31.7447L67.2218 32.8574C67.7455 32.2029 68.3346 31.5483 68.8582 30.8938L68.3346 31.1556ZM68.3346 31.1556C68.0727 31.2865 67.8764 31.4829 67.7455 31.7447L67.2218 32.8574C67.7455 32.2029 68.3346 31.5483 68.8582 30.8938L68.3346 31.1556ZM68.3346 31.1556C68.0727 31.2865 67.8764 31.4829 67.7455 31.7447L67.2218 32.8574C67.7455 32.2029 68.3346 31.5483 68.8582 30.8938L68.3346 31.1556ZM68.3346 31.1556C68.0727 31.2865 67.8764 31.4829 67.7455 31.7447L67.2218 32.8574C67.7455 32.2029 68.3346 31.5483 68.8582 30.8938L68.3346 31.1556ZM68.3346 31.1556C68.0727 31.2865 67.8764 31.4829 67.7455 31.7447L67.2218 32.8574C67.7455 32.2029 68.3346 31.5483 68.8582 30.8938L68.3346 31.1556ZM68.3346 31.1556C68.0727 31.2865 67.8764 31.4829 67.7455 31.7447L67.2218 32.8574C67.7455 32.2029 68.3346 31.5483 68.8582 30.8938L68.3346 31.1556ZM68.3346 31.1556C68.0727 31.2865 67.8764 31.4829 67.7455 31.7447L67.2218 32.8574C67.7455 32.2029 68.3346 31.5483 68.8582 30.8938L68.3346 31.1556ZM68.3346 31.1556C68.0727 31.2865 67.8764 31.4829 67.7455 31.7447L67.2218 32.8574C67.7455 32.2029 68.3346 31.5483 68.8582 30.8938L68.3346 31.1556ZM68.3346 31.1556C68.0727 31.2865 67.8764 31.4829 67.7455 31.7447L67.2218 32.8574C67.7455 32.2029 68.3346 31.5483 68.8582 30.8938L68.3346 31.1556ZM68.3346 31.1556C68.0727 31.2865 67.8764 31.4829 67.7455 31.7447L67.2218 32.8574C67.7455 32.2029 68.3346 31.5483 68.8582 30.8938L68.3346 31.1556ZM68.3346 31.1556C68.0727 31.2865 67.8764 31.4829 67.7455 31.7447L67.2218 32.8574C67.7455 32.2029 68.3346 31.5483 68.8582 30.8938L68.3346 31.1556ZM68.3346 31.1556C68.0727 31.2865 67.8764 31.4829 67.7455 31.7447L67.2218 32.8574C67.7455 32.2029 68.3346 31.5483 68.8582 30.8938L68.3346 31.1556ZM68.3346 31.1556C68.0727 31.2865 67.8764 31.4829 67.7455 31.7447L67.2218 32.8574C67.7455 32.2029 68.3346 31.5483 68.8582 30.8938L68.3346 31.1556ZM68.3346 31.1556C68.0727 31.2865 67.8764 31.4829 67.7455 31.7447L67.2218 32.8574C67.7455 32.2029 68.3346 31.5483 68.8582 30.8938L68.3346 31.1556ZM68.3346 31.1556C68.0727 31.2865 67.8764 31.4829 67.7455 31.7447L67.2218 32.8574C67.7455 32.2029 68.3346 31.5483 68.8582 30.8938L68.3346 31.1556ZM68.3346 31.1556C68.0727 31.2865 67.8764 31.4829 67.7455 31.7447L67.2218 32.8574C67.7455 32.2029 68.3346 31.5483 68.8582 30.8938L68.3346 31.1556ZM68.3346 31.1556C68.0727 31.2865 67.8764 31.4829 67.7455 31.7447L67.2218 32.8574C67.7455 32.2029 68.3346 31.5483 68.8582 30.8938L68.3346 31.1556ZM68.3346 31.1556C68.0727 31.2865 67.8764 31.4829 67.7455 31.7447L67.2218 32.8574C67.7455 32.2029 68.3346 31.5483 68.8582 30.8938L68.3346 31.1556ZM68.3346 31.1556C68.0727 31.2865 67.8764 31.4829 67.7455 31.7447L67.2218 32.8574C67.7455 32.2029 68.3346 31.5483 68.8582 30.8938L68.3346 31.1556ZM68.3346 31.1556C68.0727 31.2865 67.8764 31.4829 67.7455 31.7447L67.2218 32.8574C67.7455 32.2029 68.3346 31.5483 68.8582 30.8938L68.3346 31.1556ZM68.3346 31.1556C68.0727 31.2865 67.8764 31.4829 67.7455 31.7447L67.2218 32.8574C67.7455 32.2029 68.3346 31.5483 68.8582 30.8938L68.3346 31.1556ZM68.3346 31.1556C68.0727 31.2865 67.8764 31.4829 67.7455 31.7447L67.2218 32.8574C67.7455 32.2029 68.3346 31.5483 68.8582 30.8938L68.3346 31.1556Z" fill="#0A268B"/>
<path d="M77.04 24.4139C76.4509 23.563 75.6 22.7776 74.6182 22.3194L71.7382 20.8794L70.9527 19.3739L70.2327 17.9994C69.12 15.8394 66.96 14.4648 64.5382 14.4648C62.1164 14.4648 59.9564 15.8394 58.8437 17.9994L57.4036 20.8794L54.5237 22.2539C52.3637 23.3667 50.9891 25.5267 50.9891 27.9485C50.9891 30.3703 52.3637 32.5303 54.5237 33.643L56.9455 34.8212L57.4036 35.083L58.8437 38.0285C59.5637 39.4685 60.8073 40.5812 62.3127 41.1703C63.0327 41.4321 63.7527 41.563 64.5382 41.563C66.96 41.563 69.12 40.1885 70.2327 38.0285L71.6727 35.083L74.5527 33.643C76.7127 32.5303 78.0873 30.3703 78.0873 27.9485C78.0873 26.6394 77.76 25.3958 77.04 24.4139ZM72.3273 29.1267L68.8582 30.8939L68.3346 31.1558C68.0727 31.2867 67.8764 31.483 67.7455 31.7448L67.2218 32.8576L65.7818 35.803C65.5855 36.2612 65.1273 36.523 64.7346 36.523C64.6691 36.523 64.6691 36.523 64.6036 36.523C64.1455 36.523 63.6873 36.2612 63.4255 35.803L61.3964 31.8103C61.2655 31.5485 61.0691 31.3521 60.8073 31.2212L59.5636 30.5667L56.8146 29.1921C55.8327 28.7339 55.8327 27.2939 56.8146 26.8358L60.8073 24.8067C61.0691 24.6758 61.2655 24.4794 61.3964 24.2176L63.4255 20.2248C63.6873 19.7667 64.1455 19.5048 64.6036 19.5048C65.0618 19.5048 65.52 19.7667 65.7818 20.2248L66.8946 22.4503L67.8109 24.2176C67.9418 24.4794 68.1382 24.6758 68.4 24.8067L72.3927 26.8358C72.5891 26.9667 72.7855 27.0976 72.9164 27.2939C73.3091 27.8176 73.1127 28.7994 72.3273 29.1267Z" fill="#0A268B"/>
</svg>
