<svg width="187" height="108" viewBox="0 0 187 108" fill="none" xmlns="http://www.w3.org/2000/svg">
<path d="M186.284 52.1724C171.954 20.9732 134.697 0 93.5326 0H93.3372C52.2375 0.0651341 15.046 21.0383 0.716475 52.1724L0 53.7356L0.716475 55.2989C15.046 86.5632 52.3678 107.471 93.5326 107.471H93.728C134.762 107.471 171.954 86.4981 186.284 55.2989L187 53.7356L186.284 52.1724ZM93.6628 100.046H93.4674C57.2529 100.046 24.3602 82.7854 9.77011 56.6667C9.24904 55.6897 8.72797 54.7778 8.27203 53.8008C9.57471 51.1954 11.0728 48.6552 12.7011 46.1801C14.6552 43.249 16.8697 40.4483 19.3448 37.7778C21.6897 35.2375 24.1648 32.8276 26.8352 30.5479C28.4636 29.1801 30.092 27.8774 31.8506 26.6398C34.2605 24.8812 36.7356 23.2529 39.341 21.7548C40.9693 20.7778 42.6628 19.8659 44.3563 19.0192C46.7663 17.7816 49.3065 16.6743 51.8467 15.567C53.4751 14.9157 55.1686 14.2644 56.8621 13.6782C59.3372 12.8314 61.8123 12.0498 64.3525 11.3333C65.9808 10.8774 67.6743 10.4866 69.3678 10.0958C71.8429 9.57471 74.318 9.11877 76.8582 8.72797C78.4866 8.46743 80.1801 8.27203 81.8736 8.07663C84.3487 7.81609 86.8237 7.62069 89.364 7.55556C90.6667 7.49042 92.0345 7.49042 93.3372 7.49042H94.3142C96.8544 7.49042 99.3295 7.62069 101.805 7.81609C103.498 7.94636 105.126 8.07663 106.82 8.27203C109.36 8.53257 111.835 8.92337 114.31 9.37931C116.004 9.70498 117.632 10.0307 119.326 10.4215C121.866 11.0077 124.406 11.7241 126.816 12.5057C128.51 13.0268 130.203 13.613 131.831 14.1992C134.372 15.1111 136.912 16.1533 139.322 17.3257C141.015 18.1073 142.709 18.954 144.337 19.8008C146.943 21.1686 149.418 22.6667 151.828 24.2299C153.586 25.4023 155.28 26.5747 156.908 27.8123C159.513 29.8314 162.054 31.9808 164.333 34.1954C166.092 35.8889 167.785 37.7126 169.349 39.5364C171.107 41.6207 172.801 43.7701 174.299 46.0498C174.82 46.8314 175.406 47.6782 175.862 48.5249C176.904 50.2184 177.881 51.9119 178.728 53.6705C178.272 54.6475 177.751 55.6245 177.23 56.5364C162.705 82.7203 129.877 99.9809 93.6628 100.046Z" fill="#0A268B"/>
<path d="M129.226 37.1254C128.379 35.3016 127.337 33.543 126.23 31.8495C125.579 30.8725 124.862 29.9606 124.146 29.0487C122.713 27.225 121.084 25.5315 119.326 24.0334C117.762 22.6656 116.069 21.428 114.31 20.3208C111.966 18.8878 109.425 17.6503 106.82 16.6732C105.192 16.087 103.563 15.566 101.805 15.2403C99.3946 14.7192 96.8544 14.3936 94.3142 14.3936C94.0536 14.3936 93.7931 14.3936 93.4674 14.3936C92.0345 14.3936 90.6667 14.4587 89.2989 14.589C86.6935 14.8495 84.2184 15.3706 81.8084 16.1522C80.1149 16.6732 78.4215 17.3246 76.7931 18.1062C74.1226 19.3437 71.6475 20.907 69.3027 22.6656C67.4789 24.0985 65.7854 25.5966 64.2874 27.3552C63.7663 27.9414 63.2452 28.5277 62.7893 29.1139C61.682 30.4817 60.6398 31.9798 59.728 33.543C59.0115 34.7154 58.3601 35.9529 57.7739 37.1905C55.4291 42.2709 54.1264 47.8725 54.1264 53.7997C54.1264 75.5545 71.7778 93.2058 93.5326 93.2058C115.287 93.2058 132.874 75.4893 132.874 53.7346C132.874 47.8073 131.571 42.2058 129.226 37.1254ZM93.5326 85.6503C75.9464 85.6503 61.6169 71.3208 61.6169 53.7346C61.6169 36.1483 75.9464 21.8188 93.5326 21.8188C111.119 21.8188 125.448 36.1483 125.448 53.7346C125.383 71.3208 111.119 85.6503 93.5326 85.6503Z" fill="#0A268B"/>
<path d="M93.5326 32.0469C89.0383 32.0469 84.8697 33.4147 81.4176 35.7595C83.2414 35.5641 85.1303 36.0201 86.7586 37.1925C90.2759 39.7327 91.0575 44.6178 88.5824 48.135C86.0421 51.6522 81.1571 52.4338 77.5747 49.8936C75.4904 48.3955 74.3831 46.1158 74.318 43.771C72.7548 46.7672 71.9081 50.1542 71.9081 53.7365C71.9081 65.7212 81.613 75.4262 93.5977 75.4262C105.582 75.4262 115.287 65.7212 115.287 53.7365C115.287 41.7519 105.452 32.0469 93.5326 32.0469ZM104.866 66.5028C103.693 68.1963 101.349 68.522 99.7203 67.3496C98.092 66.1771 97.7012 63.8323 98.8736 62.204C100.046 60.5756 102.391 60.1848 104.019 61.3572C105.648 62.5296 106.038 64.8093 104.866 66.5028ZM106.559 60.5756C105.648 59.9243 105.452 58.6216 106.103 57.7097C106.755 56.7978 108.057 56.6024 108.969 57.2538C109.881 57.9051 110.077 59.2078 109.425 60.1197C108.774 61.0316 107.471 61.227 106.559 60.5756Z" fill="#439AFF"/>
<path d="M177.946 56.7313C177.23 56.7313 176.448 56.5359 175.797 56.08C162.444 46.7006 144.793 39.8616 124.797 36.3443C122.778 35.9535 121.41 34.0646 121.736 31.9803C122.126 29.9612 124.015 28.5934 126.1 28.919C147.203 32.6317 165.897 39.9267 180.161 49.8922C181.854 51.0646 182.245 53.4095 181.073 55.1029C180.291 56.1451 179.119 56.7313 177.946 56.7313Z" fill="#0A268B"/>
<path d="M9.05363 56.7314C7.88122 56.7314 6.7088 56.1452 5.99233 55.1682C4.81992 53.4747 5.21072 51.1299 6.90421 49.9575C21.1686 39.9268 39.8621 32.6969 60.9655 28.9843C62.9847 28.6586 64.9387 29.9613 65.3295 32.0456C65.7203 34.0648 64.3525 36.0188 62.2682 36.4096C42.2069 39.9268 24.5555 46.7659 11.2682 56.1452C10.5517 56.536 9.77011 56.7314 9.05363 56.7314Z" fill="#0A268B"/>
<path d="M23.0575 46.115C20.9732 46.115 19.2797 44.4215 19.2797 42.3372V29.8315C19.2797 27.7472 20.9732 26.0537 23.0575 26.0537C25.1418 26.0537 26.8352 27.7472 26.8352 29.8315V42.3372C26.8352 44.4215 25.1418 46.115 23.0575 46.115Z" fill="#0A268B"/>
<path d="M35.5632 42.3367C33.4789 42.3367 31.7854 40.6432 31.7854 38.5589V21.103C31.7854 19.0187 33.4789 17.3252 35.5632 17.3252C37.6475 17.3252 39.341 19.0187 39.341 21.103V38.624C39.341 40.6432 37.6475 42.3367 35.5632 42.3367Z" fill="#0A268B"/>
<path d="M48.069 37.3213C45.9847 37.3213 44.2912 35.6278 44.2912 33.5435V14.85C44.2912 12.7658 45.9847 11.0723 48.069 11.0723C50.1533 11.0723 51.8467 12.7658 51.8467 14.85V33.6087C51.8467 35.693 50.1533 37.3213 48.069 37.3213Z" fill="#0A268B"/>
<path d="M60.5747 33.6091C58.4904 33.6091 56.7969 31.9156 56.7969 29.8313V11.0727C56.7969 8.98841 58.4904 7.29492 60.5747 7.29492C62.659 7.29492 64.3525 8.98841 64.3525 11.0727V29.8313C64.2874 31.9156 62.659 33.6091 60.5747 33.6091Z" fill="#0A268B"/>
<path d="M73.0805 26.1194C70.9962 26.1194 69.3027 24.4259 69.3027 22.3416V6.05805C69.3027 3.97376 70.9962 2.28027 73.0805 2.28027C75.1648 2.28027 76.8582 3.97376 76.8582 6.05805V22.3416C76.7931 24.4259 75.1648 26.1194 73.0805 26.1194Z" fill="#0A268B"/>
<path d="M85.5862 21.104C83.5019 21.104 81.8084 19.4105 81.8084 17.3263V6.05805C81.8084 3.97376 83.5019 2.28027 85.5862 2.28027C87.6705 2.28027 89.364 3.97376 89.364 6.05805V17.3263C89.2988 19.4105 87.6705 21.104 85.5862 21.104Z" fill="#0A268B"/>
<path d="M98.092 21.104C96.0077 21.104 94.3142 19.4105 94.3142 17.3263V6.05805C94.3142 3.97376 96.0077 2.28027 98.092 2.28027C100.176 2.28027 101.87 3.97376 101.87 6.05805V17.3263C101.805 19.4105 100.176 21.104 98.092 21.104Z" fill="#0A268B"/>
<path d="M110.598 24.8164C108.513 24.8164 106.82 23.1229 106.82 21.0387V7.29536C106.82 5.21106 108.513 3.51758 110.598 3.51758C112.682 3.51758 114.375 5.21106 114.375 7.29536V21.0387C114.31 23.1881 112.617 24.8164 110.598 24.8164Z" fill="#0A268B"/>
<path d="M123.103 33.6086C121.019 33.6086 119.326 31.9151 119.326 29.8308V8.59711C119.326 6.51282 121.019 4.81934 123.103 4.81934C125.188 4.81934 126.881 6.51282 126.881 8.59711V29.896C126.816 31.9151 125.123 33.6086 123.103 33.6086Z" fill="#0A268B"/>
<path d="M135.609 37.3213C133.525 37.3213 131.831 35.6278 131.831 33.5435V13.5473C131.831 11.463 133.525 9.76953 135.609 9.76953C137.693 9.76953 139.387 11.463 139.387 13.5473V33.5435C139.322 35.6929 137.628 37.3213 135.609 37.3213Z" fill="#0A268B"/>
<path d="M148.05 39.8615C145.966 39.8615 144.272 38.1681 144.272 36.0838V19.8002C144.272 17.7159 145.966 16.0225 148.05 16.0225C150.134 16.0225 151.828 17.7159 151.828 19.8002V36.0838C151.828 38.1681 150.134 39.8615 148.05 39.8615Z" fill="#0A268B"/>
<path d="M160.556 43.575C158.471 43.575 156.778 41.8815 156.778 39.7972V28.5942C156.778 26.5099 158.471 24.8164 160.556 24.8164C162.64 24.8164 164.333 26.5099 164.333 28.5942V39.8624C164.333 41.9467 162.64 43.575 160.556 43.575Z" fill="#0A268B"/>
<path d="M173.061 49.828C170.977 49.828 169.284 48.1345 169.284 46.0502V39.7973C169.284 37.713 170.977 36.0195 173.061 36.0195C175.146 36.0195 176.839 37.713 176.839 39.7973V46.0502C176.839 48.1345 175.146 49.828 173.061 49.828Z" fill="#0A268B"/>
</svg>
