<?xml version="1.0" standalone="no"?>
<!DOCTYPE svg PUBLIC "-//W3C//DTD SVG 20010904//EN"
 "http://www.w3.org/TR/2001/REC-SVG-20010904/DTD/svg10.dtd">
<svg version="1.0" xmlns="http://www.w3.org/2000/svg"
 width="700.000000pt" height="700.000000pt" viewBox="0 0 700.000000 700.000000"
 preserveAspectRatio="xMidYMid meet">
<metadata>
Created by potrace 1.11, written by Peter Selinger 2001-2013
</metadata>
<g transform="translate(0.000000,700.000000) scale(0.100000,-0.100000)"
fill="#000000" stroke="none">
<path d="M3210 5460 c-583 -43 -1109 -180 -1596 -415 -710 -342 -1231 -829
-1540 -1439 l-76 -149 66 -132 c447 -897 1394 -1558 2571 -1793 327 -66 578
-86 965 -79 330 7 429 16 740 73 1172 214 2183 925 2615 1837 l46 96 -75 149
c-345 680 -984 1230 -1806 1555 -376 148 -747 239 -1160 282 -180 19 -583 27
-750 15z m650 -291 c619 -47 1251 -251 1755 -567 454 -284 825 -669 1039
-1078 l37 -70 -52 -95 c-699 -1269 -2507 -1925 -4162 -1509 -949 239 -1727
794 -2117 1510 l-51 95 37 70 c392 733 1171 1293 2132 1534 450 113 885 148
1382 110z"/>
<path d="M3302 4999 c-193 -26 -414 -102 -580 -199 l-82 -49 -20 38 c-71 140
-233 182 -357 92 -27 -20 -52 -53 -80 -107 -39 -75 -45 -81 -105 -110 -86 -43
-126 -79 -154 -139 -44 -93 -24 -195 52 -265 25 -23 62 -48 82 -57 63 -26 63
-27 27 -106 -44 -96 -91 -247 -112 -360 -27 -141 -24 -448 5 -583 86 -398 306
-735 630 -964 232 -164 501 -260 782 -279 439 -30 856 119 1174 420 264 250
430 571 477 926 17 125 6 402 -20 520 -134 611 -603 1075 -1216 1203 -117 24
-388 35 -503 19z m-860 -276 c9 -10 32 -52 51 -93 l36 -75 81 -40 c92 -45 113
-64 108 -97 -2 -18 -24 -34 -97 -71 l-93 -49 -39 -83 c-44 -94 -59 -110 -94
-101 -19 5 -35 27 -70 96 l-45 89 -92 48 c-77 40 -94 52 -96 74 -4 31 1 35
106 90 l84 43 40 80 c22 45 45 87 50 94 15 18 52 15 70 -5z m1260 -680 c103
-36 179 -85 255 -166 109 -117 165 -260 165 -422 0 -177 -57 -310 -187 -440
-90 -90 -167 -134 -293 -166 -322 -82 -669 132 -746 461 -50 211 11 426 164
581 85 86 196 148 310 174 98 22 228 13 332 -22z"/>
</g>
</svg>
