<svg width="32" height="39" viewBox="0 0 32 39" fill="none" xmlns="http://www.w3.org/2000/svg">
<g opacity="0.7">
<path d="M7.3909 4.06225C-0.451858 6.0544 0.540732 15.5319 2.01741 20.0218L3.25604 20.8788C3.46114 18.4706 4.34715 13.2705 6.25043 11.7358C8.15371 10.201 12.1572 11.8582 13.921 12.8786C13.7295 12.0079 13.3221 10.201 13.2236 9.9398C13.1006 9.61326 19.0894 10.2666 21.9197 12.389C24.1839 14.0869 25.1055 15.5726 25.2832 16.1032C26.1173 15.4093 27.7608 13.9072 27.6623 13.4501C27.5393 12.8786 29.6312 18.1033 29.4672 20.8788L30.4845 20.5523V19.2464C31.3049 13.8177 30.8127 14.3346 30.8948 12.389C29.6642 4.06225 22.6503 1.13338 16.5381 1.1643C9.60589 1.1643 7.678 3.98932 7.3909 4.06225Z" fill="black"/>
<path d="M14.7333 23.0832L9.27774 25.1649L7.06109 31.4916C11.0324 38.0149 15.5861 36.6164 16.9073 37.0428C22.852 37.0428 24.4259 34.2035 25.5785 31.4916L23.0601 25.1649C21.2553 24.471 19.7376 23.7135 18.3019 23.0832C17.1862 22.5934 15.2802 22.8791 14.7333 23.0832Z" fill="black"/>
<path d="M30.5177 21.3616C30.463 20.9785 30.3864 20.0069 30.5177 19.1859C31.3388 13.7261 30.8462 14.246 30.9283 12.2892C29.6967 3.91479 22.6774 0.969141 16.5604 1.00024C9.62271 1.00024 7.69331 3.84144 7.40598 3.91479C-0.442927 5.91835 0.550442 15.4501 2.02828 19.9658V21.3616M30.5177 21.3616C30.5177 21.3616 32.7756 25.5899 27.3979 28.0119C26.6117 28.9306 26.1577 30.2014 25.6079 31.5012M30.5177 21.3616L23.0875 25.1383M2.02828 21.3616C0.263052 26.6162 5.35339 28.0119 5.35339 28.0119C5.90629 29.3729 6.48465 30.5252 7.07592 31.5012M2.02828 21.3616L9.2943 25.1383M9.2943 25.1383L14.7541 23.0447C15.3015 22.8395 17.209 22.5521 18.3256 23.0447C19.7623 23.6786 21.2812 24.4404 23.0875 25.1383M9.2943 25.1383L7.07592 31.5012M23.0875 25.1383L25.6079 31.5012M7.07592 31.5012C11.0503 38.0619 15.6076 36.6554 16.9298 37.0842C22.8793 37.0842 24.4544 34.2287 25.6079 31.5012" stroke="black" stroke-width="2" stroke-linecap="round" stroke-linejoin="round"/>
<path d="M9.18947 19.8106C9.18947 19.8106 9.56267 18.6772 11.1002 18.4103C12.6376 18.1434 13.2918 19.2092 13.2918 19.2092" stroke="black" stroke-width="2" stroke-linecap="round" stroke-linejoin="round"/>
<path d="M23.0006 19.6954C23.0006 19.6954 22.6274 18.5619 21.0899 18.295C19.5524 18.0281 18.8983 19.0939 18.8983 19.0939" stroke="black" stroke-width="2" stroke-linecap="round" stroke-linejoin="round"/>
</g>
</svg>
