<svg width="13" height="19" viewBox="0 0 13 19" fill="none" xmlns="http://www.w3.org/2000/svg">
<g opacity="0.16">
<path fill-rule="evenodd" clip-rule="evenodd" d="M11.375 6.19569H10.5625V4.54352C10.5625 2.23048 8.775 0.413086 6.5 0.413086C4.225 0.413086 2.4375 2.23048 2.4375 4.54352V6.19569H1.625C0.73125 6.19569 0 6.93917 0 7.84787V16.1087C0 17.0174 0.73125 17.7609 1.625 17.7609H11.375C12.2688 17.7609 13 17.0174 13 16.1087V7.84787C13 6.93917 12.2688 6.19569 11.375 6.19569ZM9.01875 6.19569H3.98125V4.54352C3.98125 3.13917 5.11875 1.98265 6.5 1.98265C7.88125 1.98265 9.01875 3.13917 9.01875 4.54352V6.19569Z" fill="black"/>
<path d="M4 12L6 14L10 10" stroke="white" stroke-linecap="round" stroke-linejoin="round"/>
</g>
</svg>
