<svg width="86" height="98" viewBox="0 0 86 98" fill="none" xmlns="http://www.w3.org/2000/svg">
<g filter="url(#filter0_d)">
<path d="M77.0794 46.8284C77.0794 54.4553 75.665 61.205 72.8362 67.0774C70.0074 72.9498 65.9791 77.4794 60.7513 80.6663C55.5592 83.8173 49.6331 85.3928 42.9729 85.3928C36.3128 85.3928 30.4046 83.871 25.2483 80.8274C20.0921 77.748 16.0638 73.3616 13.1634 67.6682C10.2988 61.9749 8.79487 55.44 8.65164 48.0637V43.6594C8.65164 35.9967 10.0481 29.247 12.8411 23.4104C15.6699 17.538 19.6982 13.0084 24.9261 9.82155C30.1897 6.6347 36.1695 5.04128 42.8655 5.04128C49.4899 5.04128 55.3981 6.6168 60.5901 9.76784C65.7822 12.9189 69.8105 17.4127 72.6751 23.2493C75.5755 29.0501 77.0436 35.7102 77.0794 43.2298V46.8284ZM57.9046 43.552C57.9046 35.7818 56.5976 29.8915 53.9837 25.8811C51.4055 21.8349 47.6995 19.8118 42.8655 19.8118C33.4124 19.8118 28.4173 26.9016 27.8802 41.0813L27.8264 46.8284C27.8264 54.4911 29.0976 60.3814 31.6399 64.4993C34.1822 68.6171 37.9599 70.676 42.9729 70.676C47.7353 70.676 51.4055 68.6529 53.9837 64.6067C56.5618 60.5605 57.8688 54.7418 57.9046 47.1507V43.552Z" fill="#DEF4FF"/>
</g>
<defs>
<filter id="filter0_d" x="0.335425" y="0.0515454" width="85.0602" height="96.984" filterUnits="userSpaceOnUse" color-interpolation-filters="sRGB">
<feFlood flood-opacity="0" result="BackgroundImageFix"/>
<feColorMatrix in="SourceAlpha" type="matrix" values="0 0 0 0 0 0 0 0 0 0 0 0 0 0 0 0 0 0 127 0"/>
<feOffset dy="3.32649"/>
<feGaussianBlur stdDeviation="4.15811"/>
<feColorMatrix type="matrix" values="0 0 0 0 0.107139 0 0 0 0 0.259128 0 0 0 0 0.554167 0 0 0 0.25 0"/>
<feBlend mode="normal" in2="BackgroundImageFix" result="effect1_dropShadow"/>
<feBlend mode="normal" in="SourceGraphic" in2="effect1_dropShadow" result="shape"/>
</filter>
</defs>
</svg>
