<svg width="51" height="39" viewBox="0 0 51 39" fill="none" xmlns="http://www.w3.org/2000/svg">
<path d="M27.8274 10.1993C27.8274 7.12143 28.8505 4.65507 30.8998 2.80023C32.9491 0.943825 35.5006 0.015625 38.5452 0.015625C42.4351 0.015625 45.4812 1.26207 47.6881 3.75495C49.895 6.24627 51 9.56282 51 13.6999C51 17.9416 50.3447 21.5499 49.0295 24.5201C47.7159 27.4888 46.1411 29.9536 44.2989 31.9192C42.4629 33.8817 40.5434 35.4198 38.5452 36.5337C36.55 37.6475 34.816 38.4665 33.3447 39L28.2988 30.4075C30.4006 29.5573 32.1887 28.2048 33.6584 26.3484C35.1313 24.492 35.9704 22.503 36.1822 20.383C34.0819 20.383 32.1609 19.4517 30.4269 17.5968C28.6929 15.7404 27.8274 13.2741 27.8274 10.1993ZM0.55481 10.1993C0.55481 7.12143 1.57945 4.65507 3.62872 2.80023C5.67799 0.942265 8.22799 0.015625 11.2741 0.015625C15.1655 0.015625 18.2101 1.26207 20.417 3.75495C22.6254 6.24627 23.7289 9.56282 23.7289 13.6999C23.7289 17.9416 23.0736 21.5499 21.7584 24.5201C20.4448 27.4888 18.87 29.9536 17.0294 31.9192C15.1934 33.8817 13.2724 35.4198 11.2741 36.5337C9.2789 37.6475 7.54645 38.4665 6.07363 39L1.02926 30.4075C3.13108 29.5573 4.91763 28.2048 6.38735 26.3484C7.86017 24.492 8.7009 22.503 8.91108 20.383C6.81081 20.383 4.88981 19.4517 3.15736 17.5968C1.42181 15.7404 0.55481 13.2741 0.55481 10.1993Z" fill="white" fill-opacity="0.2"/>
</svg>
