<svg width="65" height="81" viewBox="0 0 65 81" fill="none" xmlns="http://www.w3.org/2000/svg">
<g filter="url(#filter0_d)">
<path d="M41.8469 51.3617C41.8469 49.2061 41.0771 47.5264 39.5374 46.3226C38.0256 45.1189 35.3521 43.8731 31.5168 42.5853C27.6816 41.2976 24.5461 40.0518 22.1106 38.848C14.1881 34.9567 10.2268 29.6097 10.2268 22.807C10.2268 19.4196 11.2066 16.4382 13.1663 13.8627C15.1539 11.2592 17.9534 9.24353 21.5647 7.8158C25.176 6.36007 29.2353 5.6322 33.7424 5.6322C38.1376 5.6322 42.0709 6.41606 45.5422 7.98376C49.0416 9.55147 51.7571 11.7911 53.6887 14.7025C55.6204 17.586 56.5862 20.8894 56.5862 24.6127H41.8889C41.8889 22.1211 41.1191 20.1895 39.5793 18.8177C38.0676 17.446 36.01 16.7601 33.4065 16.7601C30.775 16.7601 28.6894 17.348 27.1497 18.5238C25.6379 19.6716 24.8821 21.1413 24.8821 22.933C24.8821 24.5007 25.7219 25.9284 27.4016 27.2162C29.0813 28.476 32.0347 29.7917 36.262 31.1635C40.4892 32.5072 43.9605 33.9629 46.676 35.5306C53.2828 39.3379 56.5862 44.587 56.5862 51.2777C56.5862 56.6247 54.5706 60.8239 50.5393 63.8754C46.5081 66.9268 40.9791 68.4525 33.9524 68.4525C28.9973 68.4525 24.5042 67.5707 20.4729 65.807C16.4696 64.0153 13.4462 61.5798 11.4026 58.5004C9.38696 55.3929 8.37915 51.8236 8.37915 47.7924H23.1604C23.1604 51.0677 24.0002 53.4893 25.6799 55.057C27.3876 56.5967 30.1451 57.3666 33.9524 57.3666C36.3879 57.3666 38.3056 56.8487 39.7053 55.8129C41.1331 54.7491 41.8469 53.2653 41.8469 51.3617Z" fill="#DEF4FF"/>
</g>
<defs>
<filter id="filter0_d" x="0.0629339" y="0.642473" width="64.8395" height="79.4527" filterUnits="userSpaceOnUse" color-interpolation-filters="sRGB">
<feFlood flood-opacity="0" result="BackgroundImageFix"/>
<feColorMatrix in="SourceAlpha" type="matrix" values="0 0 0 0 0 0 0 0 0 0 0 0 0 0 0 0 0 0 127 0"/>
<feOffset dy="3.32649"/>
<feGaussianBlur stdDeviation="4.15811"/>
<feColorMatrix type="matrix" values="0 0 0 0 0.107139 0 0 0 0 0.259128 0 0 0 0 0.554167 0 0 0 0.25 0"/>
<feBlend mode="normal" in2="BackgroundImageFix" result="effect1_dropShadow"/>
<feBlend mode="normal" in="SourceGraphic" in2="effect1_dropShadow" result="shape"/>
</filter>
</defs>
</svg>
